<svg width="180" height="180" viewBox="0 0 180 180" fill="none" xmlns="http://www.w3.org/2000/svg">
  <defs>
    <linearGradient id="grad1" x1="0%" y1="0%" x2="100%" y2="100%">
      <stop offset="0%" style="stop-color:#3b82f6;stop-opacity:1" />
      <stop offset="100%" style="stop-color:#06b6d4;stop-opacity:1" />
    </linearGradient>
  </defs>
  <!-- Gradient circle background -->
  <circle cx="90" cy="90" r="80" fill="url(#grad1)"/>
  <!-- Droplets icon paths scaled for 180px -->
  <path d="M68.85 73.35C68.85 70.35 71.85 64.35 78.35 60.35 84.75 56.45 90.75 59.25 90.75 62.85C90.75 64.85 90.75 67.35 85.85 69.35L90.75 74.85L89.85 88.85C89.85 103.35 81.85 115.35 71.35 115.35C60.85 115.35 52.85 103.35 52.85 88.85L52.35 77.85 52.35 77.85C50.75 77.85 49.85 76.35 50.35 75.85L53.35 74.85 58.35 69.35C53.45 67.35 53.45 64.85 53.45 62.85C53.45 59.25 59.45 56.45 65.85 60.35 72.35 64.35 75.35 70.35 75.35 73.35 75.35 75.35 72.35 76.85 68.85 73.35ZM127.15 73.35C127.15 70.35 130.15 64.35 136.65 60.35 143.05 56.45 149.05 59.25 149.05 62.85C149.05 64.85 149.05 67.35 144.15 69.35L149.05 74.85L148.15 88.85C148.15 103.35 140.15 115.35 129.65 115.35C119.15 115.35 111.15 103.35 111.15 88.85L110.65 77.85 110.65 77.85C109.05 77.85 108.15 76.35 108.65 75.85L111.65 74.85 116.65 69.35C111.75 67.35 111.75 64.85 111.75 62.85C111.75 59.25 117.75 56.45 124.15 60.35 130.65 64.35 133.65 70.35 133.65 73.35 133.65 75.35 130.65 76.85 127.15 73.35Z" fill="white"/>
  <!-- Single droplet icon -->
  <path d="M90 48C83.85 58.35 75 73.35 75 90C75 106.65 83.85 121.35 90 131.5C96.15 121.35 105 106.65 105 90C105 73.35 96.15 58.35 90 48Z" fill="white" opacity="0.8"/>
</svg>
