<svg width="32" height="32" viewBox="0 0 32 32" fill="none" xmlns="http://www.w3.org/2000/svg">
  <defs>
    <linearGradient id="gradient" x1="0%" y1="0%" x2="100%" y2="100%">
      <stop offset="0%" style="stop-color:#3b82f6;stop-opacity:1" />
      <stop offset="100%" style="stop-color:#06b6d4;stop-opacity:1" />
    </linearGradient>
  </defs>
  <circle cx="16" cy="16" r="15" fill="url(#gradient)" />
  <g transform="translate(8, 8) scale(1)">
    <path d="M7 16.3c2.2 0 4-1.83 4-4.05 0-1.16-1.39-3.72-2.54-5.36a.8.8 0 0 0-1.28 0C6.03 8.53 3 11.1 3 12.25c0 2.22 1.79 4.05 4 4.05z" fill="white"/>
    <path d="M12 8c.5-.5 1-1.33 1-2C13 4.34 11.35 2 10.6 1.2a.8.8 0 0 0-1.28 0C8.67 2 7 4.34 7 6c0 .67.5 1.5 1 2" fill="white"/>
  </g>
</svg>
