<svg width="512" height="512" viewBox="0 0 512 512" fill="none" xmlns="http://www.w3.org/2000/svg">
  <defs>
    <linearGradient id="grad1" x1="0%" y1="0%" x2="100%" y2="100%">
      <stop offset="0%" style="stop-color:#3b82f6;stop-opacity:1" />
      <stop offset="100%" style="stop-color:#06b6d4;stop-opacity:1" />
    </linearGradient>
  </defs>
  <!-- Gradient circle background -->
  <circle cx="256" cy="256" r="230" fill="url(#grad1)"/>
  <!-- Droplets icon paths scaled for 512px -->
  <path d="M196.2 209.3C196.2 200.7 204.8 183.3 223.3 172.3C241.2 161.7 258.2 169.1 258.2 179.1C258.2 185.1 258.2 192.3 245.1 197.8L258.2 213.5L256.2 253.5C256.2 294.3 233.1 328.3 203.3 328.3C173.5 328.3 150.5 294.3 150.5 253.5L149.3 222.1 149.3 222.1C145.1 222.1 142.5 217.5 144.3 216.1L150.8 213.5L166.8 197.8C152.7 192.3 152.7 185.1 152.7 179.1C152.7 169.1 169.7 161.7 187.6 172.3C206.1 183.3 214.7 200.7 214.7 209.3 214.7 215.3 206.1 219.1 196.2 209.3ZM362.0 209.3C362.0 200.7 370.6 183.3 389.1 172.3C407.0 161.7 424.0 169.1 424.0 179.1C424.0 185.1 424.0 192.3 410.9 197.8L424.0 213.5L422.0 253.5C422.0 294.3 398.9 328.3 369.1 328.3C339.3 328.3 316.3 294.3 316.3 253.5L315.1 222.1 315.1 222.1C310.9 222.1 308.3 217.5 310.1 216.1L316.6 213.5L332.6 197.8C318.5 192.3 318.5 185.1 318.5 179.1C318.5 169.1 335.5 161.7 353.4 172.3C371.9 183.3 380.5 200.7 380.5 209.3 380.5 215.3 371.9 219.1 362.0 209.3Z" fill="white"/>
  <!-- Single droplet icon -->
  <path d="M256 137C238.6 166.3 214 209.3 214 256C214 302.7 238.6 345.7 256 374.3C273.4 345.7 298 302.7 298 256C298 209.3 273.4 166.3 256 137Z" fill="white" opacity="0.8"/>
</svg>